<svg width="58" height="56" viewBox="0 0 58 56" fill="none" xmlns="http://www.w3.org/2000/svg">
<path d="M58 33.1482C58 34.3144 57.0606 35.2597 55.9025 35.2597C54.9164 35.2597 54.0943 34.5708 53.8702 33.6455L41.428 31.8398C41.109 33.0107 40.6213 34.1083 39.9839 35.1037L46.1813 39.0566C46.8715 38.2827 47.87 37.793 48.9851 37.793C51.068 37.793 52.7583 39.4953 52.7583 41.5938C52.7583 43.6924 51.0687 45.3946 48.9851 45.3946C46.9006 45.3946 45.2104 43.6939 45.2104 41.5938C45.2104 41.0726 45.3147 40.5759 45.5041 40.124L39.25 36.1357C37.6962 38.0727 35.5443 39.4953 33.0803 40.1434L34.1961 47.0939C35.6555 47.1448 36.8251 48.3459 36.8251 49.8281C36.8251 51.3441 35.6041 52.5731 34.0995 52.5731C32.5948 52.5731 31.3739 51.3443 31.3739 49.8281C31.3739 48.7236 32.0265 47.7767 32.9613 47.3411L31.8477 40.3961C31.2802 40.4795 30.705 40.5381 30.1161 40.5381C28.5217 40.5381 27.0043 40.2115 25.6189 39.6315L20.6286 53.2682C20.9319 53.5563 21.1236 53.9632 21.1236 54.4159C21.1236 55.2903 20.42 56 19.551 56C18.6825 56 17.979 55.2917 17.979 54.4159C17.979 53.5786 18.6262 52.9006 19.4429 52.8434L24.4791 39.0831C23.4596 38.5194 22.5324 37.8087 21.7256 36.9777L13.9699 42.6824C13.9526 43.7156 13.1178 44.55 12.0867 44.55C11.0449 44.55 10.2006 43.6996 10.2006 42.65C10.2006 41.6004 11.0449 40.7501 12.0867 40.7501C12.6688 40.7501 13.1831 41.022 13.5286 41.4391L20.8965 36.0194C19.7664 34.575 18.9604 32.8634 18.5977 30.9891L7.10496 32.0735C6.90559 33.8653 5.39676 35.2586 3.56463 35.2586C1.59598 35.2582 0 33.6517 0 31.6698C0 29.6864 1.59598 28.0791 3.56463 28.0791C5.23757 28.0791 6.63757 29.2424 7.02108 30.8078L18.4261 29.7289C18.3976 29.3937 18.3751 29.0561 18.3751 28.7139C18.3751 26.3752 19.0579 24.2015 20.2209 22.3664L17.6851 20.4412C17.09 20.9846 16.3078 21.324 15.4417 21.324C13.5893 21.324 12.0876 19.8118 12.0876 17.9461C12.0876 16.0805 13.5893 14.5682 15.4417 14.5682C17.2952 14.5682 18.7965 16.0805 18.7965 17.9461C18.7965 18.4806 18.6615 18.9795 18.4426 19.4297L20.9515 21.3333C22.5447 19.3294 24.773 17.8669 27.329 17.2382L24.9806 3.76771C24.0887 3.6174 23.4077 2.84075 23.4077 1.89971C23.4077 0.850094 24.252 0 25.2939 0C26.3361 0 27.1804 0.849967 27.1804 1.89971C27.1804 2.60825 26.7909 3.21886 26.2191 3.54624L28.5647 17.0058C29.0731 16.9378 29.5885 16.8902 30.1146 16.8902C31.4413 16.8902 32.7137 17.1165 33.9015 17.5266L36.5856 9.98955C36.2818 9.70073 36.0902 9.29446 36.0902 8.841C36.0902 7.9663 36.7942 7.257 37.6622 7.257C38.5311 7.257 39.2343 7.96566 39.2343 8.841C39.2343 9.67866 38.587 10.3564 37.771 10.4136L35.0701 18.0013C36.8861 18.8593 38.4521 20.1692 39.6193 21.792L47.9831 16.9779C47.8889 16.6829 47.8244 16.3727 47.8244 16.046C47.8244 14.3515 49.1871 12.9782 50.8705 12.9782C52.5539 12.9782 53.9167 14.3514 53.9167 16.046C53.9167 17.7402 52.554 19.1135 50.8705 19.1135C49.9663 19.1135 49.1625 18.7092 48.6043 18.0789L40.3043 22.856C41.2859 24.5841 41.8557 26.5811 41.8557 28.7139C41.8557 29.3573 41.7912 29.983 41.6931 30.5993L53.9535 32.3772C54.2611 31.5941 55.0157 31.0365 55.9023 31.0365C57.0597 31.0365 58 31.9819 58 33.1482Z" fill="#FFD16B"/>
</svg>
